<?xml version="1.0" encoding="UTF-8"?>
<svg xmlns="http://www.w3.org/2000/svg" xmlns:xlink="http://www.w3.org/1999/xlink" width="50pt" height="50pt" viewBox="0 0 50 50" version="1.1">
<g id="surface11552391">
<path style=" stroke:none;fill-rule:nonzero;fill:rgb(0%,0%,0%);fill-opacity:1;" d="M 25 4 C 21.171875 4 17.585938 5.042969 14.496094 6.832031 C 14.019531 7.109375 13.859375 7.722656 14.132812 8.199219 C 14.410156 8.675781 15.023438 8.839844 15.5 8.5625 C 18.300781 6.941406 21.535156 6 25 6 C 33.359375 6 40.4375 11.390625 42.984375 18.871094 L 38.996094 16.875 C 38.675781 16.703125 38.285156 16.71875 37.980469 16.914062 C 37.675781 17.113281 37.5 17.460938 37.523438 17.824219 C 37.550781 18.1875 37.769531 18.507812 38.097656 18.664062 L 44.757812 22 L 47.882812 15.667969 C 48.046875 15.347656 48.027344 14.964844 47.832031 14.664062 C 47.636719 14.363281 47.292969 14.191406 46.933594 14.214844 C 46.570312 14.234375 46.246094 14.453125 46.089844 14.785156 L 44.667969 17.664062 C 41.6875 9.683594 34.007812 4 25 4 Z M 12.519531 9.390625 L 5.476562 9.851562 C 4.925781 9.886719 4.507812 10.363281 4.542969 10.914062 C 4.582031 11.464844 5.054688 11.882812 5.605469 11.847656 L 8.816406 11.636719 C 3.394531 18.207031 2.308594 27.699219 6.8125 35.5 C 8.726562 38.816406 11.421875 41.398438 14.515625 43.179688 C 14.996094 43.457031 15.605469 43.289062 15.882812 42.8125 C 16.15625 42.332031 15.992188 41.722656 15.511719 41.445312 C 12.710938 39.832031 10.277344 37.503906 8.542969 34.5 C 4.367188 27.261719 5.492188 18.433594 10.699219 12.488281 L 10.964844 16.941406 C 10.984375 17.296875 11.195312 17.617188 11.515625 17.777344 C 11.835938 17.9375 12.214844 17.914062 12.515625 17.71875 C 12.8125 17.519531 12.984375 17.179688 12.960938 16.824219 Z M 44.96875 23.976562 C 44.703125 23.980469 44.449219 24.089844 44.265625 24.28125 C 44.082031 24.472656 43.980469 24.726562 43.984375 24.992188 C 43.988281 28.226562 43.1875 31.5 41.457031 34.5 C 37.277344 41.738281 29.066406 45.175781 21.3125 43.640625 L 25.039062 41.183594 C 25.417969 40.941406 25.589844 40.476562 25.457031 40.046875 C 25.328125 39.617188 24.921875 39.328125 24.472656 39.339844 C 24.28125 39.34375 24.09375 39.40625 23.9375 39.511719 L 17.722656 43.609375 L 21.640625 49.480469 C 21.832031 49.796875 22.179688 49.980469 22.546875 49.960938 C 22.914062 49.945312 23.242188 49.726562 23.398438 49.394531 C 23.558594 49.0625 23.519531 48.667969 23.304688 48.371094 L 21.519531 45.699219 C 29.917969 47.109375 38.683594 43.300781 43.1875 35.5 C 45.101562 32.183594 45.988281 28.558594 45.984375 24.988281 C 45.988281 24.71875 45.882812 24.460938 45.691406 24.269531 C 45.5 24.078125 45.238281 23.972656 44.96875 23.976562 Z M 44.96875 23.976562 "/>
</g>
</svg>
