<svg fill="#000000" xmlns="http://www.w3.org/2000/svg"  viewBox="0 0 50 50" width="50px" height="50px"><path fill="#0d77e2" stroke="none" d="M25,6c11.579,0,21,8.072,21,17.994c0,9.922-9.421,17.994-21,17.994c-1.771,0-3.494-0.202-5.266-0.617l-1.185-0.278l-0.791,0.924c-0.685,0.8-2.982,3.15-6.771,3.81c0.724-1.304,1.27-2.63,1.629-3.961c0.279-1.034,0.329-1.578,0.343-2.051l0.047-1.116l-0.925-0.625C6.945,34.602,4,29.47,4,23.994C4,14.072,13.421,6,25,6 M25,4C12.329,4,2,12.88,2,23.994c0,6.453,3.533,12.067,8.961,15.736c-0.009,0.216,0.007,0.566-0.276,1.614c-0.351,1.299-1.059,3.128-2.498,5.191L7.165,48h1.786c6.19,0,9.772-4.035,10.326-4.683c1.845,0.432,3.741,0.67,5.722,0.67c12.671,0,23-8.879,23-19.994C48,12.879,37.671,4,25,4L25,4z"/></svg>